<svg width="27" height="54" viewBox="0 0 27 54" fill="none" xmlns="http://www.w3.org/2000/svg">
<path d="M15.415 53.3813C15.4156 53.3807 15.4164 53.3802 15.417 53.3794L26.3858 42.3575C27.2075 41.5318 27.2044 40.1963 26.3786 39.3743C25.5529 38.5525 24.2173 38.5557 23.3955 39.3814L16.0313 46.7815L16.0313 2.10937C16.0313 0.944367 15.0869 -5.20738e-07 13.9219 -5.71662e-07C12.7569 -6.22587e-07 11.8125 0.944367 11.8125 2.10937L11.8125 46.7814L4.44826 39.3815C3.62645 38.5558 2.2909 38.5526 1.46519 39.3744C0.639261 40.1964 0.636414 41.532 1.45802 42.3576L12.4268 53.3795C12.4274 53.3802 12.4281 53.3807 12.4288 53.3814C13.2533 54.2076 14.5932 54.2049 15.415 53.3813Z" fill="#DDD6BF"/>
</svg>
