<svg version="1.2" baseProfile="tiny-ps" xmlns="http://www.w3.org/2000/svg" viewBox="0 0 30 30" width="30" height="30">
	<title>Без названия-svg</title>
	<style>
		tspan { white-space:pre }
		.shp0 { opacity: 0.549;fill: #ffffff;stroke: #000000;stroke-linecap:round;stroke-width: 2 } 
		.shp1 { fill: #ffffff;stroke: #000000;stroke-linecap:round;stroke-width: 2 } 
		.shp2 { fill: #ffffff } 
	</style>
	<path id="Layer" class="shp0" d="M4 7L26 7M4 15L26 15M4 23L26 23" />
	<path id="Слой 1" class="shp1" d="M44 23L46 23L46 28L44 28L44 23Z" />
	<path id="форма 1" class="shp1" d="M44 23L45 23L45 25L44 25L44 23Z" />
	<path id="форма 2" class="shp2" d="M45 26L46 26L46 28L45 28L45 26Z" />
	<path id="форма 3" class="shp2" d="M3 6L27 6L27 8L3 8L3 6Z" />
	<path id="форма 4" class="shp2" d="M3 14L27 14L27 16L3 16L3 14Z" />
	<path id="форма 5" class="shp2" d="M3 22L27 22L27 24L3 24L3 22Z" />
</svg>